PathFileType	4	(X/Y/Z)	/Users/itak/Documents/Research/Walk-IL/dataset/trc/00061_00006.trc
DataRate	CameraRate	NumFrames	NumMarkers	Units	OrigDataRate	OrigDataStartFrame	OrigNumFrames
100.000000	100.000000	4	53	mm	100.000000	594	793
Frame#	Time	RPSI			LPSI			L3			STRN			T10			C7			CLAV			RBAK			LBAK			LSHO			LUPA			LAEL			LAOL			LWTS			LWPS			LFRA			LIFD			LHPS			LHTS			RSHO			RUPA			RAEL			RAOL			RWTS			RWPS			RFRA			RIFD			RHTS			RHPS			RBHD			LFHD			RFHD			LBHD			LHIP			RHIP			RASI			LASI			LKNE			LTHI			LANK			LTIP			LTOE			LMT1			LMT5			LHEE			RKNE			RTHI			RANK			RTIP			RTOE			RMT1			RMT5			RHEE			
		X1	Y1	Z1	X2	Y2	Z2	X3	Y3	Z3	X4	Y4	Z4	X5	Y5	Z5	X6	Y6	Z6	X7	Y7	Z7	X8	Y8	Z8	X9	Y9	Z9	X10	Y10	Z10	X11	Y11	Z11	X12	Y12	Z12	X13	Y13	Z13	X14	Y14	Z14	X15	Y15	Z15	X16	Y16	Z16	X17	Y17	Z17	X18	Y18	Z18	X19	Y19	Z19	X20	Y20	Z20	X21	Y21	Z21	X22	Y22	Z22	X23	Y23	Z23	X24	Y24	Z24	X25	Y25	Z25	X26	Y26	Z26	X27	Y27	Z27	X28	Y28	Z28	X29	Y29	Z29	X30	Y30	Z30	X31	Y31	Z31	X32	Y32	Z32	X33	Y33	Z33	X34	Y34	Z34	X35	Y35	Z35	X36	Y36	Z36	X37	Y37	Z37	X38	Y38	Z38	X39	Y39	Z39	X40	Y40	Z40	X41	Y41	Z41	X42	Y42	Z42	X43	Y43	Z43	X44	Y44	Z44	X45	Y45	Z45	X46	Y46	Z46	X47	Y47	Z47	X48	Y48	Z48	X49	Y49	Z49	X50	Y50	Z50	X51	Y51	Z51	X52	Y52	Z52	X53	Y53	Z53	

595	5.94	-788.2594604492188	1016.479431152344	465.922119140625	-645.6449584960938	1004.562561035156	370.0534057617188	-707.355224609375	1073.658813476562	411.4306640625	-592.7628173828125	1274.828125	635.7395629882812	-703.828857421875	1204.724243164062	389.3796997070312	-678.0196533203125	1472.9638671875	440.4557189941406	-605.9570922851562	1388.625244140625	605.494873046875	-768.96875	1333.010009765625	415.1307678222656	-596.6429443359375	1435.871948242188	378.0226745605469	-489.0667724609375	1442.17724609375	441.3565368652344	-421.6126098632812	1319.60302734375	391.1325073242188	-381.0410766601562	1105.981201171875	401.9068908691406	-483.4195861816406	1084.2294921875	381.6526184082031	-410.2069702148438	917.3661499023438	583.0999145507812	-376.5009765625	879.5589599609375	515.6007080078125	-366.9371643066406	1005.460510253906	450.3816223144531	-436.5679931640625	747.784912109375	659.2073364257812	-373.2256164550781	813.2359008789062	572.412841796875	-404.5283813476562	843.719970703125	628.3229370117188	-811.22216796875	1438.5302734375	567.8921508789062	-875.76416015625	1376.124755859375	578.2311401367188	-959.4578857421875	1133.711791992188	540.9490356445312	-868.73095703125	1096.77880859375	521.8704833984375	-902.0767211914062	862.1046142578125	639.0313110351562	-974.1187133789062	862.3978271484375	589.6094970703125	-974.7091674804688	1051.64697265625	550.4480590820312	-907.8692016601562	673.4586181640625	594.4276733398438	-915.8132934570312	759.9129028320312	647.8773193359375	-974.691162109375	768.6663818359375	602.2738647460938	-647.7545776367188	1651.50634765625	447.6621704101562	-617.776123046875	1689.574096679688	658.0213012695312	-525.1148681640625	1690.383544921875	572.4465942382812	-741.0889892578125	1643.666870117188	548.179443359375	-511.649169921875	940.5846557617188	409.7528076171875	-822.2891845703125	953.748779296875	568.3499755859375	-740.6746826171875	978.8541259765625	661.7496337890625	-504.3785095214844	955.4968872070312	535.0076293945312	-613.4865112304688	483.2719421386719	542.2169799804688	-561.2642822265625	615.71923828125	486.9910888671875	-705.5614013671875	52.07658004760742	392.4967041015625	-656.3156127929688	246.4458618164062	464.0965270996094	-691.6259155273438	43.61922454833984	597.88720703125	-749.845458984375	37.87445831298828	554.0413208007812	-657.2058715820312	46.83152008056641	491.1943664550781	-787.8592529296875	53.55277252197266	349.7940063476562	-699.1516723632812	553.3681030273438	781.7589721679688	-766.524658203125	807.8997802734375	699.3365478515625	-794.1266479492188	64.58447265625	746.8966674804688	-722.847900390625	427.9658813476562	786.4703979492188	-641.6981811523438	93.13504028320312	888.9855346679688	-643.0321655273438	83.032470703125	820.1810302734375	-736.9571533203125	78.98554229736328	853.5439453125	-774.652587890625	62.75365447998047	677.4385375976562	
596	5.95	-786.7922973632812	1015.475402832031	474.4986877441406	-645.6251831054688	1003.958984375	376.6347351074219	-707.0011596679688	1073.1328125	418.4615173339844	-589.449951171875	1273.943969726562	641.7014770507812	-703.3773803710938	1204.077758789062	396.6461486816406	-676.9483642578125	1472.274291992188	447.6441040039062	-603.036865234375	1387.765380859375	611.7250366210938	-768.1586303710938	1332.33740234375	423.2684020996094	-596.347412109375	1435.197875976562	384.1723937988281	-488.0148315429688	1441.4912109375	446.3294982910156	-421.0309143066406	1318.939453125	395.2987976074219	-380.4719848632812	1105.256103515625	405.73876953125	-483.064208984375	1083.5419921875	386.3858947753906	-408.4783020019531	917.4628295898438	588.01416015625	-375.367431640625	879.3684692382812	520.4058227539062	-366.0968017578125	1004.907897949219	454.5089416503906	-434.8468322753906	747.928955078125	664.5389404296875	-371.7640380859375	813.2166137695312	577.3685302734375	-402.7571105957031	843.8197631835938	633.4136962890625	-808.66259765625	1437.74658203125	576.5819091796875	-873.0611572265625	1375.386962890625	587.6195068359375	-957.494873046875	1133.218139648438	550.845947265625	-867.0638427734375	1096.2119140625	530.6223754882812	-899.4263916015625	861.2659301757812	647.5317993164062	-972.0549926757812	861.8161010742188	598.99462890625	-972.7986450195312	1051.1650390625	560.312255859375	-906.1068115234375	672.7376708984375	602.24072265625	-914.3150024414062	759.4490356445312	656.9345703125	-972.6735229492188	768.0648803710938	611.2998046875	-646.2341918945312	1650.699951171875	454.6636962890625	-614.6105346679688	1688.712768554688	664.8201904296875	-522.6890869140625	1689.583129882812	578.4769897460938	-738.9033203125	1642.854614257812	555.9948120117188	-510.8419189453125	940.2744750976562	414.2239990234375	-819.4624633789062	952.8480834960938	577.3634033203125	-736.6903076171875	977.841796875	669.6564331054688	-501.9773254394531	954.918212890625	539.5961303710938	-611.8837890625	482.3443603515625	544.9329223632812	-560.00732421875	615.1941528320312	490.2127990722656	-706.23779296875	52.33688354492188	392.6775207519531	-656.0311889648438	246.1650695800781	465.32666015625	-691.37890625	43.55892181396484	597.865966796875	-749.7871704101562	37.84661483764648	554.223388671875	-657.332763671875	46.81957626342773	491.0989379882812	-788.6942138671875	54.29257202148438	350.2678527832031	-692.5100708007812	553.58642578125	789.8251342773438	-761.654052734375	807.5305786132812	707.9622192382812	-778.4957885742188	62.18697738647461	773.5006103515625	-714.0147705078125	428.0249328613281	798.8887329101562	-622.4513549804688	98.16263580322266	909.9559326171875	-625.6243896484375	85.88303375244141	841.6318359375	-718.3977661132812	81.03995513916016	877.8154296875	-760.9356079101562	58.53340911865234	703.6240844726562	
597	5.96	-785.2206420898438	1014.400207519531	483.1479187011719	-645.5283203125	1003.353698730469	383.2767333984375	-706.6571044921875	1072.52783203125	425.5044860839844	-586.1552124023438	1273.018310546875	647.699462890625	-702.838134765625	1203.342407226562	403.9602966308594	-675.8211669921875	1471.508056640625	454.8222351074219	-600.11474609375	1386.847534179688	617.9677124023438	-767.25634765625	1331.58056640625	431.3880920410156	-595.9124755859375	1434.441772460938	390.3720092773438	-486.8960571289062	1440.7353515625	451.3879089355469	-420.3678283691406	1318.215576171875	399.5679016113281	-379.7908325195312	1104.482788085938	409.6878662109375	-482.5526123046875	1082.788208007812	391.1745300292969	-406.6546020507812	917.4615478515625	592.9554443359375	-374.0657348632812	879.1033935546875	525.2573852539062	-365.1227416992188	1004.302001953125	458.7315368652344	-432.9998779296875	747.9500122070312	669.8649291992188	-370.1793823242188	813.0965576171875	582.359130859375	-400.8942260742188	843.814208984375	638.5110473632812	-806.0713500976562	1436.909545898438	585.19140625	-870.3421630859375	1374.6025390625	596.892822265625	-955.4777221679688	1132.663208007812	560.67822265625	-865.3226318359375	1095.581787109375	539.3726806640625	-896.774169921875	860.4605712890625	656.1095581054688	-969.9332885742188	861.1847534179688	608.4033203125	-970.841064453125	1050.621337890625	570.1297607421875	-904.2595825195312	671.987548828125	610.21728515625	-912.7544555664062	758.9425048828125	666.0574340820312	-970.5974731445312	767.4198608398438	620.385009765625	-644.6666870117188	1649.837036132812	461.693115234375	-611.4349365234375	1687.784423828125	671.64501953125	-520.2626953125	1688.733764648438	584.5313110351562	-736.6499633789062	1641.957885742188	563.8045654296875	-510.0494995117188	939.9498901367188	418.7803955078125	-816.4981689453125	951.8248291015625	586.3945922851562	-732.6426391601562	976.6995239257812	677.6019287109375	-499.5951843261719	954.30712890625	544.2152709960938	-610.2449340820312	481.410888671875	547.5167846679688	-558.7191162109375	614.6769409179688	493.3190002441406	-707.1083374023438	52.62655639648438	392.8583068847656	-655.83740234375	245.9113616943359	466.4700622558594	-691.1066284179688	43.51250076293945	597.822021484375	-749.7144165039062	37.81055450439453	554.4437866210938	-657.5225830078125	46.81421279907227	490.9465637207031	-789.75537109375	55.08687210083008	350.8538208007812	-686.3305053710938	553.5310668945312	797.6301879882812	-756.793701171875	806.9701538085938	716.435546875	-762.2799072265625	60.28921127319336	799.342529296875	-705.4507446289062	428.0103759765625	810.85595703125	-603.1168823242188	103.7343978881836	929.9083251953125	-608.0015258789062	89.27034759521484	862.1788940429688	-699.513916015625	83.59943389892578	901.1311645507812	-746.5823364257812	54.8259162902832	729.1613159179688	
598	5.97	-783.5517578125	1013.275146484375	491.8692321777344	-645.3560791015625	1002.752502441406	389.9828491210938	-706.2977905273438	1071.829956054688	432.5964660644531	-582.8768310546875	1272.049560546875	653.7381591796875	-702.2382202148438	1202.514404296875	411.3154907226562	-674.6395874023438	1470.662841796875	461.9971618652344	-597.1865844726562	1385.869995117188	624.2296752929688	-766.2661743164062	1330.73681640625	439.50048828125	-595.33544921875	1433.606323242188	396.6325073242188	-485.7135620117188	1439.905883789062	456.5266723632812	-419.6228942871094	1317.42724609375	403.9305725097656	-378.9902648925781	1103.66064453125	413.7557983398438	-481.880126953125	1081.961791992188	396.02685546875	-404.7384948730469	917.3551635742188	597.9293823242188	-372.5901489257812	878.759033203125	530.1624145507812	-364.0084228515625	1003.639526367188	463.0535888671875	-431.0055847167969	747.8541870117188	675.2017822265625	-368.4637145996094	812.8746337890625	587.3921508789062	-398.9255065917969	843.706787109375	643.6217651367188	-803.451904296875	1436.016357421875	593.7318115234375	-867.6119384765625	1373.768798828125	606.0608520507812	-953.4075317382812	1132.043579101562	570.4432373046875	-863.4886474609375	1094.886108398438	548.1422729492188	-894.105712890625	859.6622924804688	664.7586669921875	-967.75390625	860.5028076171875	617.8309326171875	-968.8345336914062	1050.011108398438	579.9005126953125	-902.3251953125	671.2002563476562	618.3628540039062	-911.0952758789062	758.3713989257812	675.2063598632812	-968.4573974609375	766.7269287109375	629.5307006835938	-643.0598754882812	1648.9228515625	468.7525634765625	-608.2467651367188	1686.788208007812	678.4949340820312	-517.8348388671875	1687.840209960938	590.6132202148438	-734.3280639648438	1640.972778320312	571.6099243164062	-509.2631530761719	939.607666015625	423.3991088867188	-813.3856201171875	950.6879272460938	595.4547119140625	-728.4988403320312	975.4392700195312	685.5908813476562	-497.1849060058594	953.6658935546875	548.85302734375	-608.5693969726562	480.4676818847656	549.9814453125	-557.3941650390625	614.1605224609375	496.3009033203125	-708.1544799804688	52.95075607299805	393.0376281738281	-655.7083129882812	245.6869201660156	467.5284729003906	-690.815185546875	43.47775650024414	597.7536010742188	-749.6219482421875	37.76223754882812	554.7036743164062	-657.7714233398438	46.81044769287109	490.7390747070312	-791.0228271484375	55.93423843383789	351.5386047363281	-680.6240234375	553.1992797851562	805.2262573242188	-751.9487915039062	806.2047119140625	724.7551879882812	-745.5869140625	58.89745330810547	824.3805541992188	-697.1844482421875	427.9322814941406	822.3817138671875	-583.8026123046875	109.8183746337891	948.8297729492188	-590.273681640625	93.18471527099609	881.7926025390625	-680.414306640625	86.63748168945312	923.4733276367188	-731.7057495117188	51.65684127807617	753.995361328125	
